<svg width="72" height="72" viewBox="0 0 72 72" fill="none" xmlns="http://www.w3.org/2000/svg">
<g clip-path="url(#clip0_215_5897)">
<path d="M66.3503 21.9228H49.3896V4.70693C49.3896 2.11335 47.2895 6.10352e-05 44.6884 6.10352e-05H26.1287C23.5383 6.10352e-05 21.4275 2.10267 21.4275 4.70693V13.9606H28.6659V7.24714H42.1406V42.1697H36.1921V49.4168H49.379V29.1698H63.8024V42.1697H56.5854V49.4168H66.3396C68.9301 49.4168 71.0408 47.3142 71.0408 44.71V26.6296C71.0408 24.036 68.9407 21.9228 66.3503 21.9228Z" fill="#247CFF"/>
<path d="M42.1511 63.7936H28.6764V29.1698H34.7314V21.9228H21.438V42.1591H7.23838V29.1698H14.3382V21.9228H4.70122C2.10009 21.9228 0 24.036 0 26.6296V44.71C0 47.3036 2.10009 49.4168 4.70122 49.4168H21.438V66.3445C21.438 68.9381 23.5381 71.0514 26.1392 71.0514H44.6989C47.2893 71.0514 49.4001 68.9487 49.4001 66.3445V56.6106H42.1617V63.7936H42.1511Z" fill="#247CFF"/>
</g>
<defs>
<clipPath id="clip0_215_5897">
<rect width="71.0406" height="71.0406" fill="white"/>
</clipPath>
</defs>
</svg>
